<svg xmlns="http://www.w3.org/2000/svg" xmlns:xlink="http://www.w3.org/1999/xlink" version="1.1" width="256" height="256" viewBox="0 0 256 256" xml:space="preserve">
<desc>Created with Fabric.js 1.7.22</desc>
<defs>
</defs>
<g transform="translate(128 128) scale(0.5 0.5)" style="">
	<g style="stroke: none; stroke-width: 0; stroke-dasharray: none; stroke-linecap: butt; stroke-linejoin: miter; stroke-miterlimit: 10; fill: none; fill-rule: nonzero; opacity: 1;" transform="translate(-255.15 -255.15000000000006) scale(5.67 5.67)" >
	<path d="M 62.811 39.502 C 52.157 35.376 44.046 28.039 37.72 18.448 L 48.287 5.856 c 1.585 -1.888 4.4 -2.135 6.288 -0.55 l 18.252 15.315 c 1.888 1.585 2.135 4.4 0.55 6.288 L 62.811 39.502 z" style="stroke: none; stroke-width: 1; stroke-dasharray: none; stroke-linecap: butt; stroke-linejoin: miter; stroke-miterlimit: 10; fill: rgb(249,177,177); fill-rule: nonzero; opacity: 1;" transform=" matrix(1 0 0 1 0 0) " stroke-linecap="round" />
	<path d="M 49.376 55.513 C 39.374 51.705 31.162 44.389 24.285 34.46 L 37.72 18.448 l 25.091 21.054 L 49.376 55.513 z" style="stroke: none; stroke-width: 1; stroke-dasharray: none; stroke-linecap: butt; stroke-linejoin: miter; stroke-miterlimit: 10; fill: rgb(244,124,124); fill-rule: nonzero; opacity: 1;" transform=" matrix(1 0 0 1 0 0) " stroke-linecap="round" />
	<path d="M 24.285 34.46 L 10.85 50.472 l -7.018 8.363 c -5.814 6.929 -4.91 17.258 2.019 23.072 l 0 0 c 6.929 5.814 17.258 4.91 23.072 -2.019 l 7.018 -8.363 l 13.435 -16.012 L 24.285 34.46 z" style="stroke: none; stroke-width: 1; stroke-dasharray: none; stroke-linecap: butt; stroke-linejoin: miter; stroke-miterlimit: 10; fill: rgb(238,97,97); fill-rule: nonzero; opacity: 1;" transform=" matrix(1 0 0 1 0 0) " stroke-linecap="round" />
	<path d="M 71.084 61.92 c -6.46 -8.657 -11.06 -18.562 -13.842 -29.685 l 14.898 -6.947 c 2.234 -1.042 4.89 -0.075 5.932 2.159 l 10.07 21.594 c 1.042 2.234 0.075 4.89 -2.159 5.932 L 71.084 61.92 z" style="stroke: none; stroke-width: 1; stroke-dasharray: none; stroke-linecap: butt; stroke-linejoin: miter; stroke-miterlimit: 10; fill: rgb(254,240,174); fill-rule: nonzero; opacity: 1;" transform=" matrix(1 0 0 1 0 0) " stroke-linecap="round" />
	<path d="M 52.14 70.753 c -7.079 -9.178 -11.595 -19.102 -13.842 -29.685 l 18.944 -8.834 L 71.084 61.92 L 52.14 70.753 z" style="stroke: none; stroke-width: 1; stroke-dasharray: none; stroke-linecap: butt; stroke-linejoin: miter; stroke-miterlimit: 10; fill: rgb(254,228,90); fill-rule: nonzero; opacity: 1;" transform=" matrix(1 0 0 1 0 0) " stroke-linecap="round" />
	<path d="M 38.298 41.068 l -18.943 8.834 L 9.46 54.516 C 1.262 58.338 -2.284 68.082 1.538 76.279 l 0 0 c 3.822 8.197 13.566 11.744 21.763 7.921 l 9.895 -4.614 l 18.944 -8.834 L 38.298 41.068 z" style="stroke: none; stroke-width: 1; stroke-dasharray: none; stroke-linecap: butt; stroke-linejoin: miter; stroke-miterlimit: 10; fill: rgb(254,212,2); fill-rule: nonzero; opacity: 1;" transform=" matrix(1 0 0 1 0 0) " stroke-linecap="round" />
	<path d="M 69.098 52.985 c -4.682 11.499 -5.244 22.487 0 32.753 h 16.534 c 2.412 0 4.368 -1.956 4.368 -4.368 V 57.353 c 0 -2.412 -1.956 -4.368 -4.368 -4.368 H 69.098 z" style="stroke: none; stroke-width: 1; stroke-dasharray: none; stroke-linecap: butt; stroke-linejoin: miter; stroke-miterlimit: 10; fill: rgb(200,239,254); fill-rule: nonzero; opacity: 1;" transform=" matrix(1 0 0 1 0 0) " stroke-linecap="round" />
	<path d="M 48.196 52.985 c -4.153 10.918 -4.153 21.835 0 32.753 h 20.902 V 52.985 H 48.196 z" style="stroke: none; stroke-width: 1; stroke-dasharray: none; stroke-linecap: butt; stroke-linejoin: miter; stroke-miterlimit: 10; fill: rgb(98,219,251); fill-rule: nonzero; opacity: 1;" transform=" matrix(1 0 0 1 0 0) " stroke-linecap="round" />
	<path d="M 27.294 52.985 c -3.278 10.835 -3.673 21.743 0 32.753 h 20.902 V 52.985 H 27.294 z" style="stroke: none; stroke-width: 1; stroke-dasharray: none; stroke-linecap: butt; stroke-linejoin: miter; stroke-miterlimit: 10; fill: rgb(1,208,251); fill-rule: nonzero; opacity: 1;" transform=" matrix(1 0 0 1 0 0) " stroke-linecap="round" />
	<path d="M 0 69.362 L 0 69.362 c 0 9.045 7.332 16.377 16.377 16.377 h 10.918 V 52.985 H 16.377 C 7.332 52.985 0 60.318 0 69.362 z" style="stroke: none; stroke-width: 1; stroke-dasharray: none; stroke-linecap: butt; stroke-linejoin: miter; stroke-miterlimit: 10; fill: rgb(180,210,219); fill-rule: nonzero; opacity: 1;" transform=" matrix(1 0 0 1 0 0) " stroke-linecap="round" />
	<path d="M 12.127 74.123 c -2.625 0 -4.76 -2.136 -4.76 -4.761 c 0 -2.624 2.135 -4.76 4.76 -4.76 s 4.76 2.136 4.76 4.76 C 16.887 71.987 14.752 74.123 12.127 74.123 z" style="stroke: none; stroke-width: 1; stroke-dasharray: none; stroke-linecap: butt; stroke-linejoin: miter; stroke-miterlimit: 10; fill: rgb(255,255,255); fill-rule: nonzero; opacity: 1;" transform=" matrix(1 0 0 1 0 0) " stroke-linecap="round" />
</g>
</g>
</svg>